<mxfile host="drawio-plugin" modified="2023-10-10T09:45:14.673Z" agent="5.0 (Macintosh; Intel Mac OS X 13_4_1) AppleWebKit/537.36 (KHTML, like Gecko) Chrome/89.0.4389.114 Safari/537.36" etag="GIVVruzEFLWMrTf8_h7M" version="20.5.3" type="embed" pages="2"><diagram name="第 1 页" id="AaKfyKWcD-DC8b_adEny"><mxGraphModel dx="744" dy="742" grid="1" gridSize="10" guides="1" tooltips="1" connect="1" arrows="1" fold="1" page="1" pageScale="1" pageWidth="827" pageHeight="1169" math="0" shadow="0"><root><mxCell id="SvgjsSvg1006"/></root></mxGraphModel></diagram><diagram id="XkArRhssZxWsOQsAIkRO" name="springioc容器"><mxGraphModel dx="2398" dy="4249" grid="1" gridSize="10" guides="1" tooltips="1" connect="1" arrows="1" fold="1" page="1" pageScale="1" pageWidth="827" pageHeight="1169" math="0" shadow="0"><root><mxCell id="0"/><mxCell id="1" parent="0"/><mxCell id="sC9jKqXfs5Tp2JA2cQvI-1" value="" style="shape=image;imageAspect=0;aspect=fixed;verticalLabelPosition=bottom;verticalAlign=top;image=https://cdn.gupaoedu.cn/gupao-edu-admin/manage/permanent/2023-9/C0584810-8A73-4B60-B56D-5069AA0881E4.svg;" parent="1" vertex="1"><mxGeometry x="-1470" y="-2976.74" width="2394.62" height="4206.74" as="geometry"/></mxCell></root></mxGraphModel></diagram></mxfile>